<mxfile host="app.diagrams.net" modified="2023-09-21T19:21:27.651Z" agent="Mozilla/5.0 (X11; Linux x86_64; rv:102.0) Gecko/20100101 Firefox/102.0" version="21.8.0" etag="Kfx6ysEUcI1hO4v3vAwe" type="github">
  <diagram name="PÃ¡gina-1" id="HAwyPgE80VqJ3Kdl2g5W">
    <mxGraphModel>
      <root>
        <mxCell id="0" />
        <mxCell id="1" parent="0" />
      </root>
    </mxGraphModel>
  </diagram>
</mxfile>
